<svg width="333" height="48" viewBox="0 0 333 48" fill="none" xmlns="http://www.w3.org/2000/svg">
<path d="M16.7949 1.91602C17.9342 1.91602 18.9596 2.11133 19.8711 2.50195C20.8151 2.86003 21.6777 3.26693 22.459 3.72266C23.2728 4.17839 24.0378 4.60156 24.7539 4.99219C25.4701 5.35026 26.2025 5.5293 26.9512 5.5293C27.5371 5.49674 28.2044 5.41536 28.9531 5.28516C29.6042 5.15495 30.3529 4.95964 31.1992 4.69922C32.0781 4.40625 33.0547 3.98307 34.1289 3.42969C33.0547 4.47135 32.1758 5.35026 31.4922 6.06641C30.8411 6.75 30.3366 7.31966 29.9785 7.77539C29.5553 8.29622 29.2461 8.70312 29.0508 8.99609C28.8555 9.35417 28.5625 9.89128 28.1719 10.6074C27.8138 11.2585 27.3255 12.1374 26.707 13.2441C26.0885 14.3184 25.3073 15.7344 24.3633 17.4922C24.3633 15.2461 24.1354 13.5046 23.6797 12.2676C23.2565 11.0306 22.7845 10.0866 22.2637 9.43555C21.6452 8.68685 20.9453 8.21484 20.1641 8.01953C19.4479 7.92188 18.7318 8.05208 18.0156 8.41016C17.2995 8.73568 16.5833 9.22396 15.8672 9.875C15.1836 10.526 14.5163 11.3073 13.8652 12.2188C13.2467 13.0977 12.6771 14.0254 12.1562 15.002C11.668 15.9785 11.2611 16.9714 10.9355 17.9805C10.61 18.957 10.3984 19.8685 10.3008 20.7148C10.2031 21.4635 10.1868 22.3424 10.252 23.3516C10.3171 24.3281 10.4635 25.3372 10.6914 26.3789C10.9193 27.388 11.2122 28.3809 11.5703 29.3574C11.9284 30.334 12.3678 31.2129 12.8887 31.9941C13.4421 32.7428 14.0605 33.3613 14.7441 33.8496C15.4277 34.3053 16.209 34.5169 17.0879 34.4844C18.0645 34.4193 19.0247 34.1263 19.9688 33.6055C20.7826 33.1823 21.6126 32.5312 22.459 31.6523C23.3053 30.7409 24.0378 29.4551 24.6562 27.7949L31.8828 29.1133C29.7995 31.6523 27.765 33.5566 25.7793 34.8262C23.8262 36.0957 22.0684 36.9909 20.5059 37.5117C18.6829 38.0977 16.9577 38.3743 15.3301 38.3418C13.2793 38.1139 11.3587 37.4954 9.56836 36.4863C7.77799 35.4772 6.23177 34.2565 4.92969 32.8242C3.66016 31.3594 2.66732 29.7643 1.95117 28.0391C1.23503 26.3138 0.925781 24.6211 1.02344 22.9609C1.08854 21.8542 1.31641 20.5684 1.70703 19.1035C2.09766 17.6061 2.61849 16.0762 3.26953 14.5137C3.95312 12.9512 4.76693 11.4212 5.71094 9.92383C6.65495 8.42643 7.69661 7.0918 8.83594 5.91992C9.97526 4.71549 11.2122 3.75521 12.5469 3.03906C13.9141 2.29036 15.3301 1.91602 16.7949 1.91602ZM33.4941 39.3672C33.8197 38.8789 34.0801 38.4232 34.2754 38C34.4707 37.5768 34.6335 37.2188 34.7637 36.9258C34.8939 36.5677 34.9915 36.2422 35.0566 35.9492C35.0892 35.7539 35.1055 35.1842 35.1055 34.2402C35.1055 33.2962 35.0729 32.1081 35.0078 30.6758C34.9753 29.2435 34.9264 27.6322 34.8613 25.8418C34.8288 24.0514 34.7637 22.2285 34.666 20.373C34.6009 18.5176 34.5195 16.7109 34.4219 14.9531C34.3568 13.1953 34.2917 11.6165 34.2266 10.2168C34.1615 8.78451 34.0964 7.61263 34.0312 6.70117C33.9661 5.78971 33.9173 5.26888 33.8848 5.13867C33.8197 4.94336 33.7057 4.74805 33.543 4.55273C33.2174 4.16211 32.6641 3.78776 31.8828 3.42969C33.543 3.00651 34.8125 2.66471 35.6914 2.4043C36.2122 2.27409 36.668 2.14388 37.0586 2.01367C37.4167 1.88346 37.7747 1.75326 38.1328 1.62305C38.4258 1.49284 38.7513 1.34635 39.1094 1.18359C39.4674 0.988281 39.793 0.776693 40.0859 0.548828C39.9232 1.49284 39.793 2.4043 39.6953 3.2832C39.5977 4.16211 39.5163 4.97591 39.4512 5.72461C39.3861 6.57096 39.3535 7.38477 39.3535 8.16602C39.1908 9.76107 39.0931 11.5026 39.0605 13.3906C39.0605 15.2461 39.0768 17.1341 39.1094 19.0547C39.1419 20.9753 39.207 22.847 39.3047 24.6699C39.4023 26.4928 39.5 28.153 39.5977 29.6504C39.7279 31.1152 39.8418 32.3685 39.9395 33.4102C40.0697 34.4193 40.1673 35.0703 40.2324 35.3633C40.3626 35.8516 40.4928 36.3236 40.623 36.7793C40.7533 37.1699 40.8997 37.5768 41.0625 38C41.2253 38.4557 41.4206 38.8138 41.6484 39.0742H36.9121C36.4889 39.0742 36.082 39.0905 35.6914 39.123C35.3333 39.1556 34.959 39.1882 34.5684 39.2207C34.1777 39.2533 33.8197 39.3021 33.4941 39.3672ZM43.4062 16.1738L52.3906 16.2715C51.8698 18.2572 51.4792 19.9499 51.2188 21.3496C50.9909 22.7493 50.8444 23.9212 50.7793 24.8652C50.6491 25.9395 50.6165 26.8509 50.6816 27.5996C50.7793 28.2832 50.9421 29.0156 51.1699 29.7969C51.3652 30.4479 51.6582 31.1966 52.0488 32.043C52.4395 32.8893 52.9603 33.7357 53.6113 34.582C53.2207 34.4518 52.7975 34.3542 52.3418 34.2891C51.8861 34.224 51.4629 34.1751 51.0723 34.1426C50.6165 34.11 50.1608 34.11 49.7051 34.1426C49.2493 34.1751 48.7448 34.224 48.1914 34.2891C47.7357 34.3542 47.1823 34.4355 46.5312 34.5332C45.8802 34.6309 45.1966 34.7611 44.4805 34.9238C44.9688 33.459 45.3431 32.1895 45.6035 31.1152C45.8965 30.041 46.1081 29.1458 46.2383 28.4297C46.3685 27.5833 46.4499 26.8997 46.4824 26.3789C46.4824 25.7279 46.4824 24.9954 46.4824 24.1816C46.4824 23.3353 46.4824 22.5215 46.4824 21.7402C46.4824 20.959 46.4661 20.2754 46.4336 19.6895C46.401 19.071 46.3359 18.6803 46.2383 18.5176L45.75 18.0293C45.5547 17.8665 45.2617 17.6387 44.8711 17.3457C44.513 17.0202 44.0247 16.6296 43.4062 16.1738ZM46.873 8.6543C47.5566 8.29622 48.2402 8.19857 48.9238 8.36133C49.64 8.52409 50.1934 8.83333 50.584 9.28906C50.9746 9.74479 51.1048 10.2819 50.9746 10.9004C50.877 11.5189 50.3561 12.1211 49.4121 12.707C48.4681 13.2604 47.638 13.4557 46.9219 13.293C46.2057 13.1302 45.7012 12.7884 45.4082 12.2676C45.1152 11.7467 45.0664 11.1445 45.2617 10.4609C45.457 9.74479 45.9941 9.14258 46.873 8.6543ZM68.0645 30.1387C68.9759 30.1387 69.8223 30.041 70.6035 29.8457C71.2546 29.6829 71.873 29.4225 72.459 29.0645C73.0775 28.6738 73.4844 28.1042 73.6797 27.3555C74.3307 27.4857 74.8841 27.5996 75.3398 27.6973C75.7956 27.7624 76.1862 27.8275 76.5117 27.8926C76.8698 27.9902 77.179 28.0553 77.4395 28.0879C77.6999 28.153 78.0091 28.2181 78.3672 28.2832C78.6927 28.3483 79.0833 28.4297 79.5391 28.5273C80.0273 28.5924 80.597 28.6901 81.248 28.8203C80.7598 28.7552 80.2552 28.804 79.7344 28.9668C79.2461 29.1296 78.7741 29.3086 78.3184 29.5039C77.7975 29.7318 77.3092 30.0085 76.8535 30.334C76.5605 30.5293 76.2188 30.8223 75.8281 31.2129C75.4701 31.6035 74.9492 31.9779 74.2656 32.3359C73.582 32.694 72.6706 33.0033 71.5312 33.2637C70.4245 33.4915 68.9922 33.5729 67.2344 33.5078C65.1185 33.4427 63.3444 33.0684 61.9121 32.3848C60.4798 31.6686 59.3242 30.806 58.4453 29.7969C57.5664 28.7552 56.9316 27.6322 56.541 26.4277C56.1504 25.2233 55.9388 24.1003 55.9062 23.0586C55.8737 22.0169 56.1829 20.9264 56.834 19.7871C57.485 18.6478 58.3965 17.6061 59.5684 16.6621C60.7728 15.7181 62.2214 14.9531 63.9141 14.3672C65.6068 13.7487 67.4622 13.4395 69.4805 13.4395C70.6523 13.4395 71.7266 13.5859 72.7031 13.8789C73.7122 14.1393 74.6237 14.4974 75.4375 14.9531C76.2839 15.4089 77.0163 15.9297 77.6348 16.5156C78.2533 17.069 78.7741 17.6387 79.1973 18.2246C79.6204 18.8431 79.9785 19.4941 80.2715 20.1777C80.5319 20.7637 80.7435 21.431 80.9062 22.1797C81.069 22.9284 81.1178 23.6934 81.0527 24.4746C78.5788 24.5397 76.5768 24.5885 75.0469 24.6211C73.5495 24.6536 72.3776 24.6699 71.5312 24.6699H69.334H67.6738C67.0879 24.6699 66.3229 24.6862 65.3789 24.7188C64.4349 24.7513 63.2793 24.8001 61.9121 24.8652C62.0749 26.1673 62.4818 27.1764 63.1328 27.8926C63.8164 28.5762 64.5326 29.097 65.2812 29.4551C66.1276 29.8457 67.0553 30.0736 68.0645 30.1387ZM63.6699 21.3496C64.7116 21.4147 65.5742 21.4635 66.2578 21.4961C66.974 21.5286 67.5599 21.5612 68.0156 21.5938C68.5039 21.6263 68.8945 21.6426 69.1875 21.6426H70.4082C71.222 21.6426 72.7357 21.5938 74.9492 21.4961C74.8516 20.0638 74.5423 18.9733 74.0215 18.2246C73.5332 17.4759 73.0124 16.9225 72.459 16.5645C71.8079 16.1738 71.0918 15.946 70.3105 15.8809C68.1947 15.9134 66.6159 16.3529 65.5742 17.1992C64.5651 18.0456 63.9303 19.429 63.6699 21.3496ZM84.5195 32.6289C84.7474 31.5547 84.9102 30.6107 85.0078 29.7969C85.138 28.9505 85.2357 28.2507 85.3008 27.6973C85.3659 27.0462 85.3984 26.4928 85.3984 26.0371C85.3659 25.4837 85.3333 24.8327 85.3008 24.084C85.3008 23.3027 85.2682 22.5378 85.2031 21.7891C85.1706 21.0078 85.1217 20.3242 85.0566 19.7383C84.9915 19.1198 84.9102 18.6803 84.8125 18.4199C84.6823 18.1595 84.5033 17.8828 84.2754 17.5898C83.8197 17.0365 83.1523 16.4993 82.2734 15.9785C83.0221 15.8158 83.6569 15.6855 84.1777 15.5879C84.7311 15.4577 85.1868 15.3438 85.5449 15.2461C85.9355 15.1159 86.2773 15.002 86.5703 14.9043C86.8307 14.8066 87.14 14.709 87.498 14.6113C87.791 14.5462 88.1491 14.4648 88.5723 14.3672C88.9954 14.2695 89.4837 14.1556 90.0371 14.0254L89.8906 18.4688C90.9323 17.2318 91.9902 16.304 93.0645 15.6855C94.1387 15.0671 95.1478 14.6276 96.0918 14.3672C97.166 14.0417 98.224 13.8789 99.2656 13.8789C100.568 13.944 101.772 14.1556 102.879 14.5137C104.018 14.8717 104.995 15.2949 105.809 15.7832C106.655 16.2389 107.339 16.7272 107.859 17.248C108.38 17.7689 108.689 18.2246 108.787 18.6152C109.178 19.8848 109.275 21.0566 109.08 22.1309C108.885 23.1725 108.624 24.1979 108.299 25.207C108.006 26.1836 107.745 27.1602 107.518 28.1367C107.322 29.1133 107.404 30.1712 107.762 31.3105C107.892 31.6035 108.022 31.8965 108.152 32.1895C108.283 32.4499 108.445 32.7103 108.641 32.9707C108.836 33.2311 109.064 33.4427 109.324 33.6055C108.966 33.5729 108.608 33.5566 108.25 33.5566C107.892 33.5241 107.566 33.4915 107.273 33.459C106.915 33.4264 106.59 33.3939 106.297 33.3613C105.971 33.3288 105.532 33.3125 104.979 33.3125C104.035 33.3125 102.57 33.3613 100.584 33.459C100.877 32.7754 101.105 32.2057 101.268 31.75C101.463 31.2617 101.626 30.8711 101.756 30.5781C101.886 30.2201 101.984 29.9434 102.049 29.748C102.439 28.804 102.667 27.7298 102.732 26.5254C102.83 25.321 102.749 24.1003 102.488 22.8633C102.391 22.4401 102.228 21.9355 102 21.3496C101.772 20.7637 101.463 20.194 101.072 19.6406C100.714 19.0872 100.275 18.6152 99.7539 18.2246C99.2656 17.834 98.696 17.6061 98.0449 17.541C97.3939 17.4759 96.6615 17.6387 95.8477 18.0293C95.0664 18.4199 94.2201 19.1361 93.3086 20.1777C92.625 21.0566 92.0879 22.1309 91.6973 23.4004C91.3392 24.4746 91.0951 25.8255 90.9648 27.4531C90.8346 29.0482 91.0299 30.9199 91.5508 33.0684C91.0951 33.0033 90.6719 32.9707 90.2812 32.9707C89.8906 32.9382 89.5651 32.9056 89.3047 32.873C88.9792 32.8405 88.6862 32.8079 88.4258 32.7754C88.1328 32.7754 87.8073 32.7591 87.4492 32.7266C87.1237 32.7266 86.7168 32.7266 86.2285 32.7266C85.7402 32.694 85.1706 32.6615 84.5195 32.6289ZM111.717 7.23828C112.693 7.33594 113.507 7.41732 114.158 7.48242C114.842 7.54753 115.395 7.59635 115.818 7.62891C116.307 7.66146 116.697 7.67773 116.99 7.67773C117.283 7.71029 117.674 7.71029 118.162 7.67773C118.585 7.64518 119.139 7.61263 119.822 7.58008C120.506 7.51497 121.368 7.41732 122.41 7.28711C122.182 7.61263 122.003 7.9056 121.873 8.16602C121.743 8.39388 121.629 8.60547 121.531 8.80078L121.238 9.38672C121.173 9.58203 121.108 9.77734 121.043 9.97266C120.978 10.1354 120.913 10.3307 120.848 10.5586C120.815 10.7865 120.783 11.0306 120.75 11.291H128.27L127.586 15.2461L120.701 14.8555C120.538 16.5156 120.424 17.8014 120.359 18.7129C120.294 19.6243 120.229 20.2917 120.164 20.7148L120.066 21.5938C119.969 22.8307 119.871 24.1816 119.773 25.6465C119.676 27.0788 119.643 28.4134 119.676 29.6504C119.708 30.8874 119.822 31.929 120.018 32.7754C120.213 33.5892 120.555 33.9961 121.043 33.9961C121.531 33.9961 121.987 33.8659 122.41 33.6055C122.833 33.3451 123.191 33.0358 123.484 32.6777C123.81 32.3197 124.054 31.9616 124.217 31.6035C124.38 31.2129 124.461 30.9199 124.461 30.7246C124.461 30.5293 124.412 30.3014 124.314 30.041C124.152 29.5527 123.859 28.9342 123.436 28.1855C124.38 28.4134 125.21 28.6413 125.926 28.8691C126.284 28.9993 126.609 29.1296 126.902 29.2598C127.228 29.39 127.602 29.5365 128.025 29.6992C128.383 29.862 128.839 30.0573 129.393 30.2852C129.946 30.513 130.597 30.7897 131.346 31.1152C130.63 31.2454 130.109 31.457 129.783 31.75C129.588 31.8802 129.441 32.0267 129.344 32.1895C129.116 32.5475 128.855 33.0358 128.562 33.6543C128.27 34.2402 127.83 34.8262 127.244 35.4121C126.658 35.998 125.861 36.5189 124.852 36.9746C123.875 37.4303 122.557 37.6908 120.896 37.7559C119.171 37.821 117.853 37.528 116.941 36.877C116.062 36.2259 115.411 35.4772 114.988 34.6309C114.598 33.752 114.37 32.8893 114.305 32.043C114.24 31.1966 114.191 30.627 114.158 30.334C114.126 30.041 114.126 29.3086 114.158 28.1367C114.191 26.9648 114.24 25.679 114.305 24.2793C114.37 22.847 114.435 21.4798 114.5 20.1777C114.565 18.8431 114.598 17.8665 114.598 17.248C114.598 16.9225 114.614 16.5807 114.646 16.2227C114.646 15.9297 114.646 15.6204 114.646 15.2949C114.679 14.9368 114.695 14.5951 114.695 14.2695L107.615 14.2207L107.322 11.4375L114.451 11.6328C114.386 11.2747 114.305 10.9492 114.207 10.6562C114.142 10.3307 114.077 10.0703 114.012 9.875C113.914 9.64714 113.816 9.45182 113.719 9.28906C113.589 9.1263 113.442 8.94727 113.279 8.75195C113.117 8.58919 112.905 8.3776 112.645 8.11719C112.384 7.85677 112.075 7.5638 111.717 7.23828ZM128.367 2.99023C129.409 3.02279 130.32 3.03906 131.102 3.03906C131.883 3.00651 132.518 2.99023 133.006 2.99023H134.422C134.78 2.95768 135.219 2.94141 135.74 2.94141C136.196 2.94141 136.749 2.94141 137.4 2.94141C138.051 2.94141 138.8 2.95768 139.646 2.99023C139.907 3.90169 140.2 4.79688 140.525 5.67578C140.883 6.52214 141.193 7.28711 141.453 7.9707C141.779 8.78451 142.104 9.54948 142.43 10.2656C142.755 10.9818 143.146 11.8444 143.602 12.8535C143.992 13.6999 144.464 14.7415 145.018 15.9785C145.571 17.1829 146.222 18.5664 146.971 20.1289C147.329 19.1198 147.654 18.1921 147.947 17.3457C148.273 16.4993 148.549 15.7669 148.777 15.1484C149.038 14.4323 149.249 13.7812 149.412 13.1953C149.575 12.6094 149.754 11.8932 149.949 11.0469C150.112 10.3307 150.291 9.4681 150.486 8.45898C150.714 7.44987 150.942 6.27799 151.17 4.94336C152.114 4.94336 152.96 4.94336 153.709 4.94336C154.458 4.94336 155.109 4.92708 155.662 4.89453C156.281 4.89453 156.834 4.87826 157.322 4.8457C157.843 4.8457 158.543 4.81315 159.422 4.74805C160.171 4.68294 161.163 4.63411 162.4 4.60156C163.67 4.53646 165.232 4.45508 167.088 4.35742C166.404 4.8457 165.851 5.33398 165.428 5.82227C165.037 6.27799 164.728 6.6849 164.5 7.04297C164.24 7.46615 164.077 7.87305 164.012 8.26367C163.947 8.58919 163.882 9.33789 163.816 10.5098C163.784 11.6816 163.735 13.0814 163.67 14.709C163.637 16.304 163.605 18.013 163.572 19.8359C163.572 21.6589 163.589 23.3841 163.621 25.0117C163.654 26.6393 163.702 28.0553 163.768 29.2598C163.865 30.4316 163.995 31.1803 164.158 31.5059C164.386 31.8965 164.695 32.3522 165.086 32.873C165.444 33.3288 165.9 33.8496 166.453 34.4355C167.039 35.0215 167.804 35.6725 168.748 36.3887C167.251 36.4538 165.997 36.5026 164.988 36.5352C164.012 36.5677 163.198 36.6003 162.547 36.6328C161.798 36.6654 161.196 36.6816 160.74 36.6816C160.252 36.6816 159.585 36.6979 158.738 36.7305C157.99 36.763 156.997 36.8118 155.76 36.877C154.523 36.9095 152.928 36.9746 150.975 37.0723C151.43 36.5514 151.854 36.0306 152.244 35.5098C152.635 34.9889 152.96 34.5169 153.221 34.0938C153.546 33.6055 153.823 33.1335 154.051 32.6777C154.279 32.0592 154.458 30.9362 154.588 29.3086C154.718 27.9089 154.816 25.9069 154.881 23.3027C154.946 20.666 154.946 17.1341 154.881 12.707C154.262 13.7161 153.709 14.7253 153.221 15.7344C152.765 16.7109 152.358 17.6061 152 18.4199C151.609 19.3639 151.251 20.2754 150.926 21.1543C150.6 22.0658 150.258 23.0749 149.9 24.1816C149.575 25.1257 149.184 26.2487 148.729 27.5508C148.305 28.8529 147.817 30.2852 147.264 31.8477L145.408 31.9453C145.148 30.6432 144.887 29.4714 144.627 28.4297C144.367 27.3555 144.106 26.444 143.846 25.6953C143.553 24.8164 143.26 24.0352 142.967 23.3516C142.641 22.668 142.283 21.903 141.893 21.0566C141.535 20.3405 141.095 19.4941 140.574 18.5176C140.086 17.541 139.516 16.4505 138.865 15.2461C138.54 18.5664 138.344 21.2682 138.279 23.3516C138.214 25.4023 138.214 26.9974 138.279 28.1367C138.344 29.5039 138.442 30.4967 138.572 31.1152C138.768 31.6686 139.077 32.2871 139.5 32.9707C139.858 33.5566 140.346 34.2565 140.965 35.0703C141.616 35.8516 142.446 36.7305 143.455 37.707C142.739 37.707 141.99 37.707 141.209 37.707C140.428 37.707 139.712 37.7233 139.061 37.7559C138.279 37.7884 137.514 37.8047 136.766 37.8047C135.984 37.8372 135.073 37.8861 134.031 37.9512C133.12 38.0163 132.029 38.0814 130.76 38.1465C129.49 38.2116 128.025 38.3255 126.365 38.4883C127.081 38.0326 127.667 37.5931 128.123 37.1699C128.579 36.7142 128.937 36.3073 129.197 35.9492C129.523 35.526 129.767 35.1029 129.93 34.6797C130.027 34.4193 130.109 33.8496 130.174 32.9707C130.271 32.0918 130.353 31.0176 130.418 29.748C130.516 28.4785 130.581 27.0625 130.613 25.5C130.678 23.9375 130.727 22.3587 130.76 20.7637C130.825 19.1361 130.874 17.5573 130.906 16.0273C130.939 14.4648 130.955 13.0651 130.955 11.8281C130.988 10.5586 131.004 9.50065 131.004 8.6543C131.004 7.80794 131.004 7.27083 131.004 7.04297C130.906 6.55469 130.76 6.06641 130.564 5.57812C130.402 5.15495 130.141 4.71549 129.783 4.25977C129.425 3.80404 128.953 3.38086 128.367 2.99023ZM171.922 18.2246C172.085 18.0293 172.182 17.6712 172.215 17.1504C172.28 16.597 172.41 15.9785 172.605 15.2949C172.833 14.6113 173.208 13.8952 173.729 13.1465C174.249 12.3978 175.096 11.6979 176.268 11.0469C177.407 10.3958 178.514 10.0052 179.588 9.875C180.662 9.74479 181.688 9.79362 182.664 10.0215C183.641 10.2493 184.552 10.6074 185.398 11.0957C186.277 11.584 187.075 12.1211 187.791 12.707C188.279 13.0977 188.67 13.6673 188.963 14.416C189.256 15.1322 189.484 15.946 189.646 16.8574C189.809 17.7689 189.923 18.7292 189.988 19.7383C190.086 20.7148 190.151 21.6751 190.184 22.6191C190.216 23.5306 190.232 24.377 190.232 25.1582C190.265 25.9069 190.33 26.5254 190.428 27.0137C190.558 27.7298 190.786 28.3483 191.111 28.8691C191.437 29.3574 191.795 29.7806 192.186 30.1387C192.576 30.4642 192.967 30.7246 193.357 30.9199C193.748 31.1152 194.09 31.2617 194.383 31.3594C194.578 31.457 194.757 31.5221 194.92 31.5547C195.245 31.6849 195.473 31.6849 195.604 31.5547C195.408 32.0104 195.229 32.401 195.066 32.7266C194.904 33.0521 194.773 33.3288 194.676 33.5566C194.546 33.8171 194.432 34.0286 194.334 34.1914C194.236 34.3867 194.122 34.5658 193.992 34.7285C193.895 34.8913 193.764 35.0703 193.602 35.2656C193.439 35.4609 193.276 35.6725 193.113 35.9004C192.69 35.7376 192.283 35.5423 191.893 35.3145C191.535 35.0866 191.209 34.875 190.916 34.6797C190.558 34.4518 190.232 34.224 189.939 33.9961C189.646 33.7682 189.37 33.5078 189.109 33.2148C188.882 32.9544 188.637 32.6777 188.377 32.3848C188.149 32.0918 187.954 31.7663 187.791 31.4082C187.596 31.8314 187.124 32.4336 186.375 33.2148C185.659 33.9961 184.715 34.7122 183.543 35.3633C182.371 35.9818 181.004 36.4212 179.441 36.6816C177.911 36.9421 176.219 36.763 174.363 36.1445C173.549 35.8841 172.785 35.5098 172.068 35.0215C171.352 34.5007 170.734 33.8822 170.213 33.166C169.725 32.4499 169.367 31.6361 169.139 30.7246C168.943 29.7806 168.96 28.7389 169.188 27.5996C169.415 26.4603 169.822 25.5 170.408 24.7188C170.994 23.9375 171.694 23.3027 172.508 22.8145C173.322 22.3262 174.233 21.9518 175.242 21.6914C176.251 21.431 177.293 21.252 178.367 21.1543C179.214 21.1217 180.06 21.1706 180.906 21.3008C181.622 21.431 182.371 21.6751 183.152 22.0332C183.934 22.3587 184.601 22.8633 185.154 23.5469C185.122 21.8216 185.057 20.4544 184.959 19.4453C184.894 18.4036 184.829 17.6061 184.764 17.0527C184.633 16.4017 184.52 15.946 184.422 15.6855C184.259 15.4577 184.08 15.1973 183.885 14.9043C183.722 14.6113 183.51 14.3509 183.25 14.123C182.99 13.8626 182.664 13.651 182.273 13.4883C181.883 13.3255 181.427 13.2604 180.906 13.293C180.353 13.3255 179.913 13.472 179.588 13.7324C179.262 13.9928 179.002 14.3021 178.807 14.6602C178.644 14.9857 178.546 15.3438 178.514 15.7344C178.481 16.125 178.497 16.4668 178.562 16.7598C178.628 16.9551 178.725 17.1667 178.855 17.3945C178.986 17.5898 179.165 17.8014 179.393 18.0293C179.62 18.2572 179.93 18.4525 180.32 18.6152C179.572 18.7129 178.904 18.7943 178.318 18.8594C177.732 18.8919 177.228 18.9408 176.805 19.0059C176.316 19.071 175.893 19.1198 175.535 19.1523C175.177 19.1849 174.754 19.25 174.266 19.3477C173.842 19.4128 173.322 19.4941 172.703 19.5918C172.085 19.6895 171.368 19.8197 170.555 19.9824C170.75 19.7546 170.929 19.543 171.092 19.3477C171.255 19.1198 171.401 18.9245 171.531 18.7617C171.661 18.5664 171.792 18.3874 171.922 18.2246ZM179.246 24.0352C178.66 24.0677 178.074 24.2142 177.488 24.4746C176.902 24.7025 176.382 25.0443 175.926 25.5C175.47 25.9232 175.079 26.4277 174.754 27.0137C174.461 27.5671 174.314 28.1855 174.314 28.8691C174.314 29.5527 174.477 30.1549 174.803 30.6758C175.161 31.1641 175.617 31.571 176.17 31.8965C176.756 32.222 177.374 32.4173 178.025 32.4824C178.709 32.5475 179.376 32.4824 180.027 32.2871C180.646 32.0592 181.232 31.7012 181.785 31.2129C182.339 30.6921 182.811 30.1387 183.201 29.5527C183.592 28.9342 183.868 28.332 184.031 27.7461C184.194 27.1276 184.21 26.623 184.08 26.2324C183.82 25.3861 183.234 24.8001 182.322 24.4746C181.411 24.1165 180.385 23.9701 179.246 24.0352ZM196.629 32.6289C196.857 31.5547 197.02 30.6107 197.117 29.7969C197.247 28.9505 197.345 28.2507 197.41 27.6973C197.475 27.0462 197.508 26.4928 197.508 26.0371C197.475 25.4837 197.443 24.8327 197.41 24.084C197.41 23.3027 197.378 22.5378 197.312 21.7891C197.28 21.0078 197.231 20.3242 197.166 19.7383C197.101 19.1198 197.02 18.6803 196.922 18.4199C196.792 18.1595 196.613 17.8828 196.385 17.5898C195.929 17.0365 195.262 16.4993 194.383 15.9785C195.132 15.8158 195.766 15.6855 196.287 15.5879C196.84 15.4577 197.296 15.3438 197.654 15.2461C198.045 15.1159 198.387 15.002 198.68 14.9043C198.94 14.8066 199.249 14.709 199.607 14.6113C199.9 14.5462 200.258 14.4648 200.682 14.3672C201.105 14.2695 201.593 14.1556 202.146 14.0254L202 18.4688C203.042 17.2318 204.1 16.304 205.174 15.6855C206.248 15.0671 207.257 14.6276 208.201 14.3672C209.275 14.0417 210.333 13.8789 211.375 13.8789C212.677 13.944 213.882 14.1556 214.988 14.5137C216.128 14.8717 217.104 15.2949 217.918 15.7832C218.764 16.2389 219.448 16.7272 219.969 17.248C220.49 17.7689 220.799 18.2246 220.896 18.6152C221.287 19.8848 221.385 21.0566 221.189 22.1309C220.994 23.1725 220.734 24.1979 220.408 25.207C220.115 26.1836 219.855 27.1602 219.627 28.1367C219.432 29.1133 219.513 30.1712 219.871 31.3105C220.001 31.6035 220.132 31.8965 220.262 32.1895C220.392 32.4499 220.555 32.7103 220.75 32.9707C220.945 33.2311 221.173 33.4427 221.434 33.6055C221.076 33.5729 220.717 33.5566 220.359 33.5566C220.001 33.5241 219.676 33.4915 219.383 33.459C219.025 33.4264 218.699 33.3939 218.406 33.3613C218.081 33.3288 217.641 33.3125 217.088 33.3125C216.144 33.3125 214.679 33.3613 212.693 33.459C212.986 32.7754 213.214 32.2057 213.377 31.75C213.572 31.2617 213.735 30.8711 213.865 30.5781C213.995 30.2201 214.093 29.9434 214.158 29.748C214.549 28.804 214.777 27.7298 214.842 26.5254C214.939 25.321 214.858 24.1003 214.598 22.8633C214.5 22.4401 214.337 21.9355 214.109 21.3496C213.882 20.7637 213.572 20.194 213.182 19.6406C212.824 19.0872 212.384 18.6152 211.863 18.2246C211.375 17.834 210.805 17.6061 210.154 17.541C209.503 17.4759 208.771 17.6387 207.957 18.0293C207.176 18.4199 206.329 19.1361 205.418 20.1777C204.734 21.0566 204.197 22.1309 203.807 23.4004C203.449 24.4746 203.204 25.8255 203.074 27.4531C202.944 29.0482 203.139 30.9199 203.66 33.0684C203.204 33.0033 202.781 32.9707 202.391 32.9707C202 32.9382 201.674 32.9056 201.414 32.873C201.089 32.8405 200.796 32.8079 200.535 32.7754C200.242 32.7754 199.917 32.7591 199.559 32.7266C199.233 32.7266 198.826 32.7266 198.338 32.7266C197.85 32.694 197.28 32.6615 196.629 32.6289ZM228.074 18.2246C228.237 18.0293 228.335 17.6712 228.367 17.1504C228.432 16.597 228.562 15.9785 228.758 15.2949C228.986 14.6113 229.36 13.8952 229.881 13.1465C230.402 12.3978 231.248 11.6979 232.42 11.0469C233.559 10.3958 234.666 10.0052 235.74 9.875C236.814 9.74479 237.84 9.79362 238.816 10.0215C239.793 10.2493 240.704 10.6074 241.551 11.0957C242.43 11.584 243.227 12.1211 243.943 12.707C244.432 13.0977 244.822 13.6673 245.115 14.416C245.408 15.1322 245.636 15.946 245.799 16.8574C245.962 17.7689 246.076 18.7292 246.141 19.7383C246.238 20.7148 246.303 21.6751 246.336 22.6191C246.368 23.5306 246.385 24.377 246.385 25.1582C246.417 25.9069 246.482 26.5254 246.58 27.0137C246.71 27.7298 246.938 28.3483 247.264 28.8691C247.589 29.3574 247.947 29.7806 248.338 30.1387C248.729 30.4642 249.119 30.7246 249.51 30.9199C249.9 31.1152 250.242 31.2617 250.535 31.3594C250.73 31.457 250.91 31.5221 251.072 31.5547C251.398 31.6849 251.626 31.6849 251.756 31.5547C251.561 32.0104 251.382 32.401 251.219 32.7266C251.056 33.0521 250.926 33.3288 250.828 33.5566C250.698 33.8171 250.584 34.0286 250.486 34.1914C250.389 34.3867 250.275 34.5658 250.145 34.7285C250.047 34.8913 249.917 35.0703 249.754 35.2656C249.591 35.4609 249.428 35.6725 249.266 35.9004C248.842 35.7376 248.436 35.5423 248.045 35.3145C247.687 35.0866 247.361 34.875 247.068 34.6797C246.71 34.4518 246.385 34.224 246.092 33.9961C245.799 33.7682 245.522 33.5078 245.262 33.2148C245.034 32.9544 244.79 32.6777 244.529 32.3848C244.301 32.0918 244.106 31.7663 243.943 31.4082C243.748 31.8314 243.276 32.4336 242.527 33.2148C241.811 33.9961 240.867 34.7122 239.695 35.3633C238.523 35.9818 237.156 36.4212 235.594 36.6816C234.064 36.9421 232.371 36.763 230.516 36.1445C229.702 35.8841 228.937 35.5098 228.221 35.0215C227.505 34.5007 226.886 33.8822 226.365 33.166C225.877 32.4499 225.519 31.6361 225.291 30.7246C225.096 29.7806 225.112 28.7389 225.34 27.5996C225.568 26.4603 225.975 25.5 226.561 24.7188C227.146 23.9375 227.846 23.3027 228.66 22.8145C229.474 22.3262 230.385 21.9518 231.395 21.6914C232.404 21.431 233.445 21.252 234.52 21.1543C235.366 21.1217 236.212 21.1706 237.059 21.3008C237.775 21.431 238.523 21.6751 239.305 22.0332C240.086 22.3587 240.753 22.8633 241.307 23.5469C241.274 21.8216 241.209 20.4544 241.111 19.4453C241.046 18.4036 240.981 17.6061 240.916 17.0527C240.786 16.4017 240.672 15.946 240.574 15.6855C240.411 15.4577 240.232 15.1973 240.037 14.9043C239.874 14.6113 239.663 14.3509 239.402 14.123C239.142 13.8626 238.816 13.651 238.426 13.4883C238.035 13.3255 237.579 13.2604 237.059 13.293C236.505 13.3255 236.066 13.472 235.74 13.7324C235.415 13.9928 235.154 14.3021 234.959 14.6602C234.796 14.9857 234.699 15.3438 234.666 15.7344C234.633 16.125 234.65 16.4668 234.715 16.7598C234.78 16.9551 234.878 17.1667 235.008 17.3945C235.138 17.5898 235.317 17.8014 235.545 18.0293C235.773 18.2572 236.082 18.4525 236.473 18.6152C235.724 18.7129 235.057 18.7943 234.471 18.8594C233.885 18.8919 233.38 18.9408 232.957 19.0059C232.469 19.071 232.046 19.1198 231.688 19.1523C231.329 19.1849 230.906 19.25 230.418 19.3477C229.995 19.4128 229.474 19.4941 228.855 19.5918C228.237 19.6895 227.521 19.8197 226.707 19.9824C226.902 19.7546 227.081 19.543 227.244 19.3477C227.407 19.1198 227.553 18.9245 227.684 18.7617C227.814 18.5664 227.944 18.3874 228.074 18.2246ZM235.398 24.0352C234.812 24.0677 234.227 24.2142 233.641 24.4746C233.055 24.7025 232.534 25.0443 232.078 25.5C231.622 25.9232 231.232 26.4277 230.906 27.0137C230.613 27.5671 230.467 28.1855 230.467 28.8691C230.467 29.5527 230.63 30.1549 230.955 30.6758C231.313 31.1641 231.769 31.571 232.322 31.8965C232.908 32.222 233.527 32.4173 234.178 32.4824C234.861 32.5475 235.529 32.4824 236.18 32.2871C236.798 32.0592 237.384 31.7012 237.938 31.2129C238.491 30.6921 238.963 30.1387 239.354 29.5527C239.744 28.9342 240.021 28.332 240.184 27.7461C240.346 27.1276 240.363 26.623 240.232 26.2324C239.972 25.3861 239.386 24.8001 238.475 24.4746C237.563 24.1165 236.538 23.9701 235.398 24.0352ZM274.314 17.2969C274.217 16.6458 274.135 16.1087 274.07 15.6855C274.005 15.2298 273.94 14.8717 273.875 14.6113C273.81 14.2858 273.761 14.0417 273.729 13.8789C273.663 13.7161 273.582 13.5371 273.484 13.3418C273.419 13.179 273.305 12.9837 273.143 12.7559C273.012 12.528 272.85 12.2676 272.654 11.9746C273.077 12.1048 273.501 12.1862 273.924 12.2188C274.38 12.2513 274.803 12.2839 275.193 12.3164C275.617 12.349 276.056 12.349 276.512 12.3164C276.967 12.3164 277.488 12.3001 278.074 12.2676C278.595 12.235 279.214 12.2188 279.93 12.2188C280.678 12.1862 281.525 12.1374 282.469 12.0723C281.915 12.2025 281.443 12.4303 281.053 12.7559C280.695 13.0488 280.385 13.3743 280.125 13.7324C279.832 14.123 279.588 14.5462 279.393 15.002C279.23 15.4251 279.132 16.2389 279.1 17.4434C279.067 18.6152 279.067 20.015 279.1 21.6426C279.132 23.2376 279.165 24.9629 279.197 26.8184C279.262 28.6738 279.295 30.4479 279.295 32.1406C279.327 33.8333 279.327 35.3796 279.295 36.7793C279.262 38.1465 279.181 39.1556 279.051 39.8066C278.595 41.8574 277.749 43.5176 276.512 44.7871C275.275 46.0892 273.647 46.7891 271.629 46.8867C269.188 46.9844 267.251 46.7565 265.818 46.2031C264.419 45.6497 263.328 44.9661 262.547 44.1523C261.766 43.3711 261.18 42.5736 260.789 41.7598C260.398 40.946 259.992 40.3275 259.568 39.9043C259.178 39.5462 258.787 39.2044 258.396 38.8789C258.038 38.6185 257.664 38.3581 257.273 38.0977C256.915 37.8372 256.557 37.6745 256.199 37.6094C257.143 37.6419 257.99 37.6582 258.738 37.6582C259.487 37.6582 260.122 37.6582 260.643 37.6582C261.229 37.6582 261.749 37.6419 262.205 37.6094H263.768H268.211C267.56 37.8047 267.072 38.0163 266.746 38.2441C266.421 38.5046 266.193 38.765 266.062 39.0254C265.932 39.3184 265.867 39.6113 265.867 39.9043C265.997 40.6855 266.421 41.2552 267.137 41.6133C267.853 41.9714 268.829 42.1829 270.066 42.248C271.271 42.3132 272.101 42.2806 272.557 42.1504C273.012 42.0527 273.37 41.8574 273.631 41.5645C274.152 40.7832 274.591 39.7741 274.949 38.5371C275.21 37.4954 275.389 36.1445 275.486 34.4844C275.617 32.7917 275.47 30.7246 275.047 28.2832C274.005 29.7155 272.801 30.7897 271.434 31.5059C270.066 32.222 268.764 32.7428 267.527 33.0684C266.062 33.4264 264.581 33.6055 263.084 33.6055C259.145 33.4427 256.199 32.5312 254.246 30.8711C252.293 29.2109 251.398 26.9811 251.561 24.1816C251.658 22.7819 252.081 21.3822 252.83 19.9824C253.611 18.5827 254.62 17.3294 255.857 16.2227C257.127 15.1159 258.576 14.237 260.203 13.5859C261.831 12.9349 263.523 12.6582 265.281 12.7559C266.616 12.8861 267.869 13.1302 269.041 13.4883C270.05 13.8138 271.043 14.2695 272.02 14.8555C273.029 15.4414 273.794 16.2552 274.314 17.2969ZM258.787 22.1797C258.592 23.4492 258.673 24.6374 259.031 25.7441C259.422 26.8509 259.959 27.8112 260.643 28.625C261.326 29.4062 262.091 30.0247 262.938 30.4805C263.784 30.9036 264.581 31.099 265.33 31.0664C266.893 31.0339 268.243 30.334 269.383 28.9668C270.522 27.5671 271.206 25.4837 271.434 22.7168C271.531 21.3496 271.352 20.1777 270.896 19.2012C270.473 18.1921 269.936 17.3783 269.285 16.7598C268.634 16.1413 267.951 15.7018 267.234 15.4414C266.518 15.181 265.949 15.0671 265.525 15.0996C264.939 15.1647 264.288 15.3438 263.572 15.6367C262.889 15.8971 262.221 16.304 261.57 16.8574C260.919 17.3783 260.333 18.0781 259.812 18.957C259.324 19.8359 258.982 20.9102 258.787 22.1797ZM295.604 30.1387C296.515 30.1387 297.361 30.041 298.143 29.8457C298.794 29.6829 299.412 29.4225 299.998 29.0645C300.617 28.6738 301.023 28.1042 301.219 27.3555C301.87 27.4857 302.423 27.5996 302.879 27.6973C303.335 27.7624 303.725 27.8275 304.051 27.8926C304.409 27.9902 304.718 28.0553 304.979 28.0879C305.239 28.153 305.548 28.2181 305.906 28.2832C306.232 28.3483 306.622 28.4297 307.078 28.5273C307.566 28.5924 308.136 28.6901 308.787 28.8203C308.299 28.7552 307.794 28.804 307.273 28.9668C306.785 29.1296 306.313 29.3086 305.857 29.5039C305.337 29.7318 304.848 30.0085 304.393 30.334C304.1 30.5293 303.758 30.8223 303.367 31.2129C303.009 31.6035 302.488 31.9779 301.805 32.3359C301.121 32.694 300.21 33.0033 299.07 33.2637C297.964 33.4915 296.531 33.5729 294.773 33.5078C292.658 33.4427 290.883 33.0684 289.451 32.3848C288.019 31.6686 286.863 30.806 285.984 29.7969C285.105 28.7552 284.471 27.6322 284.08 26.4277C283.689 25.2233 283.478 24.1003 283.445 23.0586C283.413 22.0169 283.722 20.9264 284.373 19.7871C285.024 18.6478 285.936 17.6061 287.107 16.6621C288.312 15.7181 289.76 14.9531 291.453 14.3672C293.146 13.7487 295.001 13.4395 297.02 13.4395C298.191 13.4395 299.266 13.5859 300.242 13.8789C301.251 14.1393 302.163 14.4974 302.977 14.9531C303.823 15.4089 304.555 15.9297 305.174 16.5156C305.792 17.069 306.313 17.6387 306.736 18.2246C307.16 18.8431 307.518 19.4941 307.811 20.1777C308.071 20.7637 308.283 21.431 308.445 22.1797C308.608 22.9284 308.657 23.6934 308.592 24.4746C306.118 24.5397 304.116 24.5885 302.586 24.6211C301.089 24.6536 299.917 24.6699 299.07 24.6699H296.873H295.213C294.627 24.6699 293.862 24.6862 292.918 24.7188C291.974 24.7513 290.818 24.8001 289.451 24.8652C289.614 26.1673 290.021 27.1764 290.672 27.8926C291.355 28.5762 292.072 29.097 292.82 29.4551C293.667 29.8457 294.594 30.0736 295.604 30.1387ZM291.209 21.3496C292.251 21.4147 293.113 21.4635 293.797 21.4961C294.513 21.5286 295.099 21.5612 295.555 21.5938C296.043 21.6263 296.434 21.6426 296.727 21.6426H297.947C298.761 21.6426 300.275 21.5938 302.488 21.4961C302.391 20.0638 302.081 18.9733 301.561 18.2246C301.072 17.4759 300.551 16.9225 299.998 16.5645C299.347 16.1738 298.631 15.946 297.85 15.8809C295.734 15.9134 294.155 16.3529 293.113 17.1992C292.104 18.0456 291.469 19.429 291.209 21.3496ZM310.057 14.6113C310.675 14.6439 311.229 14.6602 311.717 14.6602C312.238 14.6276 312.677 14.5951 313.035 14.5625C313.458 14.5299 313.833 14.4974 314.158 14.4648C314.646 14.3997 315.151 14.3184 315.672 14.2207C316.128 14.1556 316.6 14.0742 317.088 13.9766C317.609 13.8464 318.113 13.6999 318.602 13.5371C318.406 14.0254 318.243 14.4486 318.113 14.8066C317.983 15.1647 317.885 15.474 317.82 15.7344C317.723 16.0273 317.674 16.2715 317.674 16.4668C317.641 16.6947 317.625 16.9714 317.625 17.2969C317.592 17.8503 317.592 18.7454 317.625 19.9824C319.318 18.5176 320.734 17.3783 321.873 16.5645C323.045 15.7507 323.973 15.1159 324.656 14.6602C325.47 14.1393 326.105 13.7975 326.561 13.6348C327.765 13.4395 328.823 13.7161 329.734 14.4648C330.125 14.7904 330.499 15.2298 330.857 15.7832C331.215 16.304 331.525 17.0039 331.785 17.8828C332.046 18.7617 332.241 19.8197 332.371 21.0566C332.501 22.2611 332.518 23.7096 332.42 25.4023C331.736 25.4674 331.118 25.5326 330.564 25.5977C330.044 25.6628 329.604 25.7116 329.246 25.7441C328.823 25.8092 328.432 25.8418 328.074 25.8418L326.756 25.9883C326.3 26.0534 325.73 26.1185 325.047 26.1836C324.396 26.2161 323.598 26.2812 322.654 26.3789C324.021 25.2721 324.9 24.3118 325.291 23.498C325.714 22.6517 325.893 21.9518 325.828 21.3984C325.763 20.7799 325.47 20.2428 324.949 19.7871C324.331 19.429 323.663 19.2988 322.947 19.3965C322.329 19.4616 321.613 19.7383 320.799 20.2266C319.985 20.7148 319.122 21.6263 318.211 22.9609C318.276 25.0443 318.341 26.7695 318.406 28.1367C318.504 29.5039 318.585 30.6107 318.65 31.457C318.748 32.4336 318.829 33.1986 318.895 33.752C318.992 34.2402 319.188 34.7611 319.48 35.3145C319.708 35.7702 320.034 36.2747 320.457 36.8281C320.88 37.3815 321.434 37.9349 322.117 38.4883C320.685 38.4232 319.513 38.4232 318.602 38.4883C318.048 38.5208 317.56 38.5534 317.137 38.5859C316.681 38.651 316.193 38.7161 315.672 38.7812C315.216 38.8464 314.679 38.9115 314.061 38.9766C313.475 39.0742 312.824 39.1719 312.107 39.2695C312.368 38.9115 312.579 38.4883 312.742 38C312.905 37.5443 313.035 37.1048 313.133 36.6816C313.263 36.1934 313.361 35.6888 313.426 35.168C313.458 34.7122 313.475 34.0286 313.475 33.1172C313.507 32.2057 313.491 31.1803 313.426 30.041C313.393 28.8691 313.344 27.6647 313.279 26.4277C313.214 25.1582 313.133 23.9701 313.035 22.8633C312.938 21.7565 312.824 20.7962 312.693 19.9824C312.596 19.1361 312.482 18.5501 312.352 18.2246C312.189 17.834 311.993 17.4434 311.766 17.0527C311.57 16.6947 311.326 16.3203 311.033 15.9297C310.74 15.5065 310.415 15.0671 310.057 14.6113Z" fill="#1B1B1B"/>
</svg>
